<mxfile host="app.diagrams.net" modified="2024-06-19T11:25:47.458Z" agent="Mozilla/5.0 (Windows NT 10.0; Win64; x64) AppleWebKit/537.36 (KHTML, like Gecko) Chrome/126.0.0.0 Safari/537.36 Edg/126.0.0.0" etag="DAYZxaY-nkR2gdSTkXPT" version="24.5.5" type="device" pages="2">
  <diagram name="Page-1" id="0783ab3e-0a74-02c8-0abd-f7b4e66b4bec">
    <mxGraphModel dx="1635" dy="513" grid="1" gridSize="10" guides="1" tooltips="1" connect="1" arrows="1" fold="1" page="1" pageScale="1" pageWidth="850" pageHeight="1100" background="none" math="0" shadow="0">
      <root>
        <mxCell id="0" />
        <mxCell id="1" parent="0" />
        <mxCell id="1c1d494c118603dd-2" value="Пользователь" style="swimlane;html=1;startSize=20;" parent="1" vertex="1">
          <mxGeometry x="-110" y="65" width="250" height="655" as="geometry" />
        </mxCell>
        <mxCell id="v_Qi73lCpqeWQaDKNA86-22" style="edgeStyle=orthogonalEdgeStyle;rounded=0;orthogonalLoop=1;jettySize=auto;html=1;exitX=0.5;exitY=1;exitDx=0;exitDy=0;entryX=0.5;entryY=0;entryDx=0;entryDy=0;" parent="1c1d494c118603dd-2" source="60571a20871a0731-4" target="v_Qi73lCpqeWQaDKNA86-4" edge="1">
          <mxGeometry relative="1" as="geometry" />
        </mxCell>
        <mxCell id="60571a20871a0731-4" value="" style="ellipse;whiteSpace=wrap;html=1;rounded=0;shadow=0;comic=0;labelBackgroundColor=none;strokeWidth=1;fillColor=#000000;fontFamily=Verdana;fontSize=12;align=center;" parent="1c1d494c118603dd-2" vertex="1">
          <mxGeometry x="95" y="45" width="40" height="40" as="geometry" />
        </mxCell>
        <mxCell id="v_Qi73lCpqeWQaDKNA86-4" value="Нажать на интересующую трансляцию" style="rounded=1;whiteSpace=wrap;html=1;" parent="1c1d494c118603dd-2" vertex="1">
          <mxGeometry x="60" y="115" width="110" height="45" as="geometry" />
        </mxCell>
        <mxCell id="1c1d494c118603dd-3" value="Система" style="swimlane;html=1;startSize=20;" parent="1" vertex="1">
          <mxGeometry x="140" y="65" width="250" height="655" as="geometry" />
        </mxCell>
        <mxCell id="v_Qi73lCpqeWQaDKNA86-8" style="edgeStyle=orthogonalEdgeStyle;rounded=0;orthogonalLoop=1;jettySize=auto;html=1;exitX=0.5;exitY=1;exitDx=0;exitDy=0;entryX=0.5;entryY=0;entryDx=0;entryDy=0;" parent="1c1d494c118603dd-3" source="v_Qi73lCpqeWQaDKNA86-6" target="v_Qi73lCpqeWQaDKNA86-1" edge="1">
          <mxGeometry relative="1" as="geometry" />
        </mxCell>
        <mxCell id="v_Qi73lCpqeWQaDKNA86-6" value="Нажать кнопку &lt;br&gt;&quot;Подписаться&quot;" style="rounded=1;whiteSpace=wrap;html=1;" parent="1c1d494c118603dd-3" vertex="1">
          <mxGeometry x="-190" y="212.5" width="110" height="45" as="geometry" />
        </mxCell>
        <mxCell id="gH6CKnK77ke__wWTVOcE-3" value="[Пользователь не заблокирован]" style="edgeStyle=orthogonalEdgeStyle;rounded=0;orthogonalLoop=1;jettySize=auto;html=1;exitX=0.5;exitY=1;exitDx=0;exitDy=0;entryX=0;entryY=0.5;entryDx=0;entryDy=0;" parent="1c1d494c118603dd-3" source="v_Qi73lCpqeWQaDKNA86-1" target="gH6CKnK77ke__wWTVOcE-1" edge="1">
          <mxGeometry x="0.1793" relative="1" as="geometry">
            <mxPoint as="offset" />
          </mxGeometry>
        </mxCell>
        <mxCell id="v_Qi73lCpqeWQaDKNA86-1" value="" style="rhombus;whiteSpace=wrap;html=1;" parent="1c1d494c118603dd-3" vertex="1">
          <mxGeometry x="-158.5" y="282.5" width="45" height="45" as="geometry" />
        </mxCell>
        <mxCell id="60571a20871a0731-5" value="" style="shape=mxgraph.bpmn.shape;html=1;verticalLabelPosition=bottom;labelBackgroundColor=#ffffff;verticalAlign=top;perimeter=ellipsePerimeter;outline=end;symbol=terminate;rounded=0;shadow=0;comic=0;strokeWidth=1;fontFamily=Verdana;fontSize=12;align=center;" parent="1c1d494c118603dd-3" vertex="1">
          <mxGeometry x="-156" y="501.5" width="40" height="40" as="geometry" />
        </mxCell>
        <mxCell id="gH6CKnK77ke__wWTVOcE-2" style="edgeStyle=orthogonalEdgeStyle;rounded=0;orthogonalLoop=1;jettySize=auto;html=1;exitX=0.5;exitY=1;exitDx=0;exitDy=0;entryX=0.5;entryY=0;entryDx=0;entryDy=0;" parent="1c1d494c118603dd-3" source="v_Qi73lCpqeWQaDKNA86-10" target="gH6CKnK77ke__wWTVOcE-1" edge="1">
          <mxGeometry relative="1" as="geometry" />
        </mxCell>
        <mxCell id="v_Qi73lCpqeWQaDKNA86-10" value="Разблокировать пользователя&lt;div&gt;(обратиться к БД)&lt;/div&gt;" style="rounded=1;whiteSpace=wrap;html=1;" parent="1c1d494c118603dd-3" vertex="1">
          <mxGeometry x="70" y="282.5" width="110" height="45" as="geometry" />
        </mxCell>
        <mxCell id="v_Qi73lCpqeWQaDKNA86-13" value="Подписаться на пользователя&lt;div&gt;(&lt;span style=&quot;background-color: initial;&quot;&gt;обратиться к БД&lt;/span&gt;&lt;span style=&quot;background-color: initial;&quot;&gt;)&lt;/span&gt;&lt;/div&gt;" style="rounded=1;whiteSpace=wrap;html=1;" parent="1c1d494c118603dd-3" vertex="1">
          <mxGeometry x="70" y="444" width="110" height="45" as="geometry" />
        </mxCell>
        <mxCell id="v_Qi73lCpqeWQaDKNA86-15" value="[Пользователь заблокирован]" style="edgeStyle=orthogonalEdgeStyle;rounded=0;orthogonalLoop=1;jettySize=auto;html=1;exitX=1;exitY=0.5;exitDx=0;exitDy=0;" parent="1c1d494c118603dd-3" source="v_Qi73lCpqeWQaDKNA86-1" target="v_Qi73lCpqeWQaDKNA86-10" edge="1">
          <mxGeometry relative="1" as="geometry" />
        </mxCell>
        <mxCell id="v_Qi73lCpqeWQaDKNA86-18" style="edgeStyle=orthogonalEdgeStyle;rounded=0;orthogonalLoop=1;jettySize=auto;html=1;exitX=0;exitY=0.5;exitDx=0;exitDy=0;entryX=0.5;entryY=0;entryDx=0;entryDy=0;" parent="1c1d494c118603dd-3" source="v_Qi73lCpqeWQaDKNA86-13" target="60571a20871a0731-5" edge="1">
          <mxGeometry relative="1" as="geometry" />
        </mxCell>
        <mxCell id="PfoMKhfdhC4ewXQnPdLk-8" style="edgeStyle=orthogonalEdgeStyle;rounded=0;orthogonalLoop=1;jettySize=auto;html=1;exitX=0.5;exitY=1;exitDx=0;exitDy=0;entryX=1;entryY=0.5;entryDx=0;entryDy=0;" parent="1c1d494c118603dd-3" source="v_Qi73lCpqeWQaDKNA86-28" target="v_Qi73lCpqeWQaDKNA86-6" edge="1">
          <mxGeometry relative="1" as="geometry" />
        </mxCell>
        <mxCell id="v_Qi73lCpqeWQaDKNA86-28" value="Вывести страницу трансляции" style="rounded=1;whiteSpace=wrap;html=1;" parent="1c1d494c118603dd-3" vertex="1">
          <mxGeometry x="70" y="115" width="110" height="45" as="geometry" />
        </mxCell>
        <mxCell id="gH6CKnK77ke__wWTVOcE-4" style="edgeStyle=orthogonalEdgeStyle;rounded=0;orthogonalLoop=1;jettySize=auto;html=1;exitX=0.5;exitY=1;exitDx=0;exitDy=0;entryX=0.5;entryY=0;entryDx=0;entryDy=0;" parent="1c1d494c118603dd-3" source="gH6CKnK77ke__wWTVOcE-1" target="v_Qi73lCpqeWQaDKNA86-13" edge="1">
          <mxGeometry relative="1" as="geometry" />
        </mxCell>
        <mxCell id="gH6CKnK77ke__wWTVOcE-1" value="" style="rhombus;whiteSpace=wrap;html=1;" parent="1c1d494c118603dd-3" vertex="1">
          <mxGeometry x="102.5" y="365" width="45" height="45" as="geometry" />
        </mxCell>
        <mxCell id="1c1d494c118603dd-4" value="Lane 3" style="swimlane;html=1;startSize=20;" parent="1" vertex="1">
          <mxGeometry x="390" y="65" width="250" height="655" as="geometry" />
        </mxCell>
        <mxCell id="v_Qi73lCpqeWQaDKNA86-29" style="edgeStyle=orthogonalEdgeStyle;rounded=0;orthogonalLoop=1;jettySize=auto;html=1;exitX=1;exitY=0.5;exitDx=0;exitDy=0;entryX=0;entryY=0.5;entryDx=0;entryDy=0;" parent="1" source="v_Qi73lCpqeWQaDKNA86-4" target="v_Qi73lCpqeWQaDKNA86-28" edge="1">
          <mxGeometry relative="1" as="geometry" />
        </mxCell>
      </root>
    </mxGraphModel>
  </diagram>
  <diagram name="Копия Page-1" id="XWoO9vpkO4QzhwQKdufJ">
    <mxGraphModel dx="1635" dy="513" grid="1" gridSize="10" guides="1" tooltips="1" connect="1" arrows="1" fold="1" page="1" pageScale="1" pageWidth="850" pageHeight="1100" background="none" math="0" shadow="0">
      <root>
        <mxCell id="g4lssaECtq5816fbiKxp-0" />
        <mxCell id="g4lssaECtq5816fbiKxp-1" parent="g4lssaECtq5816fbiKxp-0" />
        <mxCell id="4Uj5DbUl4yQBknSUJOxK-0" value="Пользователь" style="swimlane;html=1;startSize=20;" parent="g4lssaECtq5816fbiKxp-1" vertex="1">
          <mxGeometry x="-110" y="65" width="250" height="565" as="geometry" />
        </mxCell>
        <mxCell id="4Uj5DbUl4yQBknSUJOxK-1" style="edgeStyle=orthogonalEdgeStyle;rounded=0;orthogonalLoop=1;jettySize=auto;html=1;exitX=0.5;exitY=1;exitDx=0;exitDy=0;entryX=0.5;entryY=0;entryDx=0;entryDy=0;" parent="4Uj5DbUl4yQBknSUJOxK-0" source="4Uj5DbUl4yQBknSUJOxK-2" target="4Uj5DbUl4yQBknSUJOxK-3" edge="1">
          <mxGeometry relative="1" as="geometry" />
        </mxCell>
        <mxCell id="4Uj5DbUl4yQBknSUJOxK-2" value="" style="ellipse;whiteSpace=wrap;html=1;rounded=0;shadow=0;comic=0;labelBackgroundColor=none;strokeWidth=1;fillColor=#000000;fontFamily=Verdana;fontSize=12;align=center;" parent="4Uj5DbUl4yQBknSUJOxK-0" vertex="1">
          <mxGeometry x="95" y="45" width="40" height="40" as="geometry" />
        </mxCell>
        <mxCell id="4Uj5DbUl4yQBknSUJOxK-3" value="Нажать на интересующую трансляцию" style="rounded=1;whiteSpace=wrap;html=1;" parent="4Uj5DbUl4yQBknSUJOxK-0" vertex="1">
          <mxGeometry x="60" y="115" width="110" height="45" as="geometry" />
        </mxCell>
        <mxCell id="4Uj5DbUl4yQBknSUJOxK-4" value="Система" style="swimlane;html=1;startSize=20;" parent="g4lssaECtq5816fbiKxp-1" vertex="1">
          <mxGeometry x="140" y="65" width="250" height="565" as="geometry" />
        </mxCell>
        <mxCell id="4Uj5DbUl4yQBknSUJOxK-5" style="edgeStyle=orthogonalEdgeStyle;rounded=0;orthogonalLoop=1;jettySize=auto;html=1;exitX=0.5;exitY=1;exitDx=0;exitDy=0;entryX=0.5;entryY=0;entryDx=0;entryDy=0;" parent="4Uj5DbUl4yQBknSUJOxK-4" source="4Uj5DbUl4yQBknSUJOxK-6" target="4Uj5DbUl4yQBknSUJOxK-8" edge="1">
          <mxGeometry relative="1" as="geometry" />
        </mxCell>
        <mxCell id="4Uj5DbUl4yQBknSUJOxK-6" value="Нажать кнопку &lt;br&gt;&quot;Подписаться&quot;" style="rounded=1;whiteSpace=wrap;html=1;" parent="4Uj5DbUl4yQBknSUJOxK-4" vertex="1">
          <mxGeometry x="-190" y="212.5" width="110" height="45" as="geometry" />
        </mxCell>
        <mxCell id="4Uj5DbUl4yQBknSUJOxK-7" value="[Пользователь не заблокирован]" style="edgeStyle=orthogonalEdgeStyle;rounded=0;orthogonalLoop=1;jettySize=auto;html=1;exitX=0.5;exitY=1;exitDx=0;exitDy=0;entryX=0;entryY=0.5;entryDx=0;entryDy=0;" parent="4Uj5DbUl4yQBknSUJOxK-4" source="4Uj5DbUl4yQBknSUJOxK-8" target="4Uj5DbUl4yQBknSUJOxK-18" edge="1">
          <mxGeometry x="0.1793" relative="1" as="geometry">
            <mxPoint as="offset" />
          </mxGeometry>
        </mxCell>
        <mxCell id="4Uj5DbUl4yQBknSUJOxK-8" value="" style="rhombus;whiteSpace=wrap;html=1;" parent="4Uj5DbUl4yQBknSUJOxK-4" vertex="1">
          <mxGeometry x="-158.5" y="282.5" width="45" height="45" as="geometry" />
        </mxCell>
        <mxCell id="4Uj5DbUl4yQBknSUJOxK-9" value="" style="shape=mxgraph.bpmn.shape;html=1;verticalLabelPosition=bottom;labelBackgroundColor=#ffffff;verticalAlign=top;perimeter=ellipsePerimeter;outline=end;symbol=terminate;rounded=0;shadow=0;comic=0;strokeWidth=1;fontFamily=Verdana;fontSize=12;align=center;" parent="4Uj5DbUl4yQBknSUJOxK-4" vertex="1">
          <mxGeometry x="-156" y="501.5" width="40" height="40" as="geometry" />
        </mxCell>
        <mxCell id="4Uj5DbUl4yQBknSUJOxK-10" style="edgeStyle=orthogonalEdgeStyle;rounded=0;orthogonalLoop=1;jettySize=auto;html=1;exitX=0.5;exitY=1;exitDx=0;exitDy=0;entryX=0.5;entryY=0;entryDx=0;entryDy=0;" parent="4Uj5DbUl4yQBknSUJOxK-4" source="4Uj5DbUl4yQBknSUJOxK-11" target="4Uj5DbUl4yQBknSUJOxK-18" edge="1">
          <mxGeometry relative="1" as="geometry" />
        </mxCell>
        <mxCell id="4Uj5DbUl4yQBknSUJOxK-11" value="Разблокировать пользователя&lt;div&gt;(обратиться к БД)&lt;/div&gt;" style="rounded=1;whiteSpace=wrap;html=1;" parent="4Uj5DbUl4yQBknSUJOxK-4" vertex="1">
          <mxGeometry x="70" y="282.5" width="110" height="45" as="geometry" />
        </mxCell>
        <mxCell id="4Uj5DbUl4yQBknSUJOxK-12" value="Подписаться на пользователя&lt;div&gt;(&lt;span style=&quot;background-color: initial;&quot;&gt;обратиться к БД&lt;/span&gt;&lt;span style=&quot;background-color: initial;&quot;&gt;)&lt;/span&gt;&lt;/div&gt;" style="rounded=1;whiteSpace=wrap;html=1;" parent="4Uj5DbUl4yQBknSUJOxK-4" vertex="1">
          <mxGeometry x="70" y="444" width="110" height="45" as="geometry" />
        </mxCell>
        <mxCell id="4Uj5DbUl4yQBknSUJOxK-13" value="[Пользователь заблокирован]" style="edgeStyle=orthogonalEdgeStyle;rounded=0;orthogonalLoop=1;jettySize=auto;html=1;exitX=1;exitY=0.5;exitDx=0;exitDy=0;" parent="4Uj5DbUl4yQBknSUJOxK-4" source="4Uj5DbUl4yQBknSUJOxK-8" target="4Uj5DbUl4yQBknSUJOxK-11" edge="1">
          <mxGeometry relative="1" as="geometry" />
        </mxCell>
        <mxCell id="4Uj5DbUl4yQBknSUJOxK-14" style="edgeStyle=orthogonalEdgeStyle;rounded=0;orthogonalLoop=1;jettySize=auto;html=1;exitX=0;exitY=0.5;exitDx=0;exitDy=0;entryX=0.5;entryY=0;entryDx=0;entryDy=0;" parent="4Uj5DbUl4yQBknSUJOxK-4" source="4Uj5DbUl4yQBknSUJOxK-12" target="4Uj5DbUl4yQBknSUJOxK-9" edge="1">
          <mxGeometry relative="1" as="geometry" />
        </mxCell>
        <mxCell id="4Uj5DbUl4yQBknSUJOxK-15" style="edgeStyle=orthogonalEdgeStyle;rounded=0;orthogonalLoop=1;jettySize=auto;html=1;exitX=0.5;exitY=1;exitDx=0;exitDy=0;entryX=1;entryY=0.5;entryDx=0;entryDy=0;" parent="4Uj5DbUl4yQBknSUJOxK-4" source="4Uj5DbUl4yQBknSUJOxK-16" target="4Uj5DbUl4yQBknSUJOxK-6" edge="1">
          <mxGeometry relative="1" as="geometry" />
        </mxCell>
        <mxCell id="4Uj5DbUl4yQBknSUJOxK-16" value="Вывести страницу трансляции" style="rounded=1;whiteSpace=wrap;html=1;" parent="4Uj5DbUl4yQBknSUJOxK-4" vertex="1">
          <mxGeometry x="70" y="115" width="110" height="45" as="geometry" />
        </mxCell>
        <mxCell id="4Uj5DbUl4yQBknSUJOxK-17" style="edgeStyle=orthogonalEdgeStyle;rounded=0;orthogonalLoop=1;jettySize=auto;html=1;exitX=0.5;exitY=1;exitDx=0;exitDy=0;entryX=0.5;entryY=0;entryDx=0;entryDy=0;" parent="4Uj5DbUl4yQBknSUJOxK-4" source="4Uj5DbUl4yQBknSUJOxK-18" target="4Uj5DbUl4yQBknSUJOxK-12" edge="1">
          <mxGeometry relative="1" as="geometry" />
        </mxCell>
        <mxCell id="4Uj5DbUl4yQBknSUJOxK-18" value="" style="rhombus;whiteSpace=wrap;html=1;" parent="4Uj5DbUl4yQBknSUJOxK-4" vertex="1">
          <mxGeometry x="102.5" y="365" width="45" height="45" as="geometry" />
        </mxCell>
        <mxCell id="4Uj5DbUl4yQBknSUJOxK-20" style="edgeStyle=orthogonalEdgeStyle;rounded=0;orthogonalLoop=1;jettySize=auto;html=1;exitX=1;exitY=0.5;exitDx=0;exitDy=0;entryX=0;entryY=0.5;entryDx=0;entryDy=0;" parent="g4lssaECtq5816fbiKxp-1" source="4Uj5DbUl4yQBknSUJOxK-3" target="4Uj5DbUl4yQBknSUJOxK-16" edge="1">
          <mxGeometry relative="1" as="geometry" />
        </mxCell>
      </root>
    </mxGraphModel>
  </diagram>
</mxfile>
